<svg aria-hidden="true" style="position: absolute; width: 0; height: 0; overflow: hidden;" version="1.1"
    xmlns="http://www.w3.org/2000/svg" xmlns:xlink="http://www.w3.org/1999/xlink">
    <defs>
        <symbol id="icon-account-circle" viewBox="0 0 32 32">
            <path
                d="M5.674 23.946c1.594-1.105 3.175-1.953 4.744-2.544s3.253-0.886 5.052-0.886c1.8 0 3.492 0.298 5.076 0.893s3.167 1.441 4.75 2.537c1.106-1.378 1.889-2.751 2.349-4.12s0.691-2.82 0.691-4.351c0-3.654-1.231-6.712-3.694-9.176s-5.521-3.695-9.174-3.695c-3.653 0-6.712 1.232-9.176 3.695s-3.696 5.522-3.696 9.176c0 1.531 0.235 2.98 0.706 4.348s1.261 2.742 2.373 4.123zM15.459 16.681c-1.488 0-2.737-0.508-3.749-1.525s-1.518-2.267-1.518-3.751 0.508-2.733 1.525-3.748c1.017-1.015 2.269-1.523 3.756-1.523s2.737 0.51 3.749 1.53c1.012 1.020 1.518 2.272 1.518 3.755s-0.508 2.732-1.525 3.744c-1.017 1.012-2.269 1.518-3.756 1.518zM15.479 30.941c-2.121 0-4.122-0.405-6.003-1.216s-3.525-1.92-4.932-3.327c-1.407-1.407-2.517-3.048-3.328-4.923s-1.216-3.878-1.216-6.010c0-2.125 0.406-4.123 1.218-5.995s1.921-3.51 3.326-4.915c1.405-1.405 3.045-2.516 4.921-3.331s3.879-1.223 6.011-1.223c2.125 0 4.123 0.408 5.995 1.223s3.51 1.926 4.915 3.331c1.405 1.405 2.516 3.044 3.331 4.917s1.223 3.87 1.223 5.991c0 2.121-0.408 4.122-1.223 6.004s-1.926 3.525-3.331 4.93c-1.405 1.405-3.044 2.514-4.917 3.326s-3.87 1.218-5.991 1.218zM15.466 28.345c1.379 0 2.719-0.197 4.023-0.591s2.602-1.090 3.897-2.088c-1.301-0.908-2.607-1.596-3.916-2.063s-2.644-0.701-4.003-0.701-2.692 0.234-3.999 0.701c-1.306 0.467-2.61 1.155-3.912 2.063 1.295 0.998 2.593 1.694 3.893 2.088s2.639 0.591 4.018 0.591zM15.466 14.286c0.845 0 1.535-0.267 2.073-0.801s0.806-1.225 0.806-2.073-0.269-1.541-0.806-2.078c-0.537-0.537-1.228-0.806-2.073-0.806s-1.535 0.269-2.073 0.806c-0.537 0.537-0.806 1.229-0.806 2.078s0.269 1.539 0.806 2.073c0.537 0.534 1.228 0.801 2.073 0.801z">
            </path>
        </symbol>
        <symbol id="icon-add-circle" viewBox="0 0 32 32">
            <path
                d="M14.383 16.825v5.127c0 0.339 0.114 0.624 0.342 0.853s0.516 0.344 0.862 0.344c0.346 0 0.631-0.113 0.855-0.34s0.336-0.514 0.336-0.859v-5.124h5.165c0.339 0 0.624-0.114 0.853-0.342s0.344-0.516 0.344-0.862c0-0.346-0.113-0.631-0.34-0.855s-0.514-0.336-0.859-0.336h-5.162v-5.431c0-0.339-0.114-0.624-0.342-0.853s-0.516-0.344-0.862-0.344c-0.346 0-0.631 0.113-0.855 0.34s-0.336 0.514-0.336 0.859v5.429h-5.393c-0.339 0-0.624 0.114-0.853 0.342s-0.344 0.516-0.344 0.862c0 0.346 0.113 0.631 0.34 0.855s0.514 0.336 0.859 0.336h5.391zM15.477 30.941c-2.138 0-4.145-0.405-6.021-1.214s-3.515-1.917-4.92-3.322c-1.405-1.405-2.512-3.046-3.322-4.922s-1.214-3.885-1.214-6.026c0-2.14 0.405-4.149 1.214-6.027s1.916-3.512 3.32-4.904c1.404-1.393 3.044-2.495 4.921-3.307s3.886-1.219 6.027-1.219c2.141 0 4.15 0.406 6.028 1.218s3.513 1.914 4.905 3.306c1.392 1.392 2.494 3.028 3.306 4.91s1.218 3.892 1.218 6.032c0 2.139-0.406 4.147-1.219 6.022s-1.915 3.513-3.307 4.912c-1.392 1.399-3.029 2.506-4.909 3.321s-3.89 1.221-6.028 1.221zM15.485 28.345c3.569 0 6.604-1.254 9.103-3.762s3.749-5.551 3.749-9.128c0-3.569-1.247-6.604-3.742-9.103s-5.539-3.749-9.133-3.749c-3.56 0-6.594 1.247-9.103 3.742s-3.763 5.539-3.763 9.133c0 3.56 1.254 6.594 3.762 9.103s5.551 3.763 9.128 3.763z">
            </path>
        </symbol>
        <symbol id="icon-arrow-down" viewBox="0 0 32 32">
            <path stroke-linejoin="miter" stroke-linecap="butt" stroke-miterlimit="4" stroke-width="2.6667"
                d="M2.339 8c0.269 0 0.474 0.081 0.682 0.289l12.417 12.487 12.487-12.487c0.207-0.207 0.384-0.265 0.599-0.258 0.251 0.009 0.469 0.096 0.698 0.326 0.208 0.208 0.289 0.413 0.289 0.682s-0.081 0.472-0.289 0.68l-13.117 13.117c-0.144 0.144-0.258 0.214-0.333 0.245-0.095 0.039-0.201 0.062-0.331 0.063-0.065 0-0.125-0.007-0.18-0.018l-0.154-0.044-0.141-0.081c-0.055-0.039-0.118-0.092-0.19-0.164l-13.185-13.182c-0.197-0.197-0.267-0.383-0.258-0.635 0.010-0.286 0.106-0.51 0.326-0.729 0.208-0.207 0.411-0.289 0.68-0.289z">
            </path>
        </symbol>
        <symbol id="icon-arrow-right" viewBox="0 0 32 32">
            <path stroke-linejoin="miter" stroke-linecap="butt" stroke-miterlimit="4" stroke-width="2.6667"
                d="M9.005 1.333c0.269 0 0.474 0.081 0.682 0.289l13.185 13.185c0.144 0.144 0.211 0.256 0.242 0.331v0.003c0.039 0.095 0.063 0.201 0.063 0.331s-0.023 0.236-0.063 0.331v0.003c-0.031 0.075-0.099 0.187-0.242 0.331l-13.25 13.25c-0.207 0.207-0.386 0.266-0.602 0.258-0.251-0.009-0.466-0.094-0.695-0.323-0.208-0.208-0.292-0.413-0.292-0.682s0.083-0.474 0.292-0.682l12.484-12.484-12.552-12.552c-0.207-0.207-0.266-0.384-0.258-0.599 0.009-0.251 0.096-0.468 0.326-0.698 0.208-0.208 0.411-0.289 0.68-0.289z">
            </path>
        </symbol>
        <symbol id="icon-arrow-up" viewBox="0 0 32 32">
            <path stroke-linejoin="miter" stroke-linecap="butt" stroke-miterlimit="4" stroke-width="2.6667"
                d="M15.404 8c0.25 0 0.453 0.075 0.667 0.289l13.182 13.185c0.219 0.219 0.289 0.416 0.289 0.648s-0.070 0.43-0.289 0.648c-0.208 0.208-0.413 0.289-0.682 0.289s-0.472-0.082-0.68-0.289l-0.003-0.003-12.487-12.414-12.482 12.482c-0.207 0.207-0.384 0.266-0.599 0.258-0.251-0.009-0.468-0.093-0.698-0.323-0.208-0.208-0.289-0.413-0.289-0.682s0.081-0.474 0.289-0.682l13.117-13.117c0.213-0.213 0.414-0.289 0.664-0.289z">
            </path>
        </symbol>
        <symbol id="icon-book" viewBox="0 0 26 32">
            <path
                d="M2.532 21.497c0.361-0.231 0.754-0.407 1.177-0.527s0.877-0.181 1.362-0.181h1.27v-18.258h-1.27c-0.713 0-1.315 0.246-1.805 0.739s-0.734 1.096-0.734 1.809v16.417zM8.873 20.79h13.441v-18.258h-13.441v18.258zM5.071 30.941c-1.404 0-2.6-0.494-3.588-1.483s-1.483-2.185-1.483-3.588v-20.79c0-1.406 0.494-2.604 1.483-3.595s2.184-1.485 3.588-1.485h17.17c0.723 0 1.337 0.253 1.844 0.76s0.76 1.122 0.76 1.844v19.71c0 0.248-0.064 0.474-0.19 0.675s-0.29 0.344-0.488 0.426c-0.464 0.192-0.829 0.505-1.093 0.939s-0.396 0.935-0.396 1.503 0.131 1.067 0.394 1.498c0.263 0.431 0.626 0.741 1.090 0.928 0.219 0.096 0.388 0.262 0.506 0.5s0.177 0.526 0.177 0.864v0.042c0 0.346-0.123 0.64-0.368 0.884s-0.546 0.366-0.902 0.366h-18.504zM5.053 28.409h15.771c-0.214-0.361-0.381-0.76-0.5-1.197s-0.178-0.884-0.178-1.341c0-0.484 0.060-0.938 0.18-1.362s0.299-0.819 0.536-1.187h-15.807c-0.697 0-1.292 0.246-1.785 0.739s-0.739 1.096-0.739 1.809c0 0.707 0.246 1.308 0.739 1.8s1.087 0.739 1.782 0.739z">
            </path>
        </symbol>
        <symbol id="icon-chair" viewBox="0 0 32 32">
            <path
                d="M5.654 28.45c-0.317 0-0.593-0.12-0.829-0.361s-0.355-0.519-0.355-0.837v-1.548h-0.452c-1.116 0-2.065-0.391-2.846-1.172s-1.171-1.73-1.171-2.846v-8.487c0-1.196 0.358-2.115 1.074-2.759s1.564-0.986 2.543-1.024v-2.825c0-1.12 0.355-2.035 1.064-2.744s1.625-1.064 2.744-1.064h16.174c1.12 0 2.029 0.355 2.727 1.064s1.047 1.625 1.047 2.744v2.825c0.979 0.039 1.827 0.38 2.543 1.024s1.074 1.564 1.074 2.759v8.487c0 1.116-0.391 2.065-1.172 2.846s-1.73 1.172-2.846 1.172h-0.452v1.548c0 0.318-0.118 0.597-0.355 0.837s-0.513 0.361-0.83 0.361-0.594-0.12-0.83-0.361c-0.237-0.24-0.355-0.519-0.355-0.837v-1.548h-17.304v1.551c0 0.318-0.12 0.597-0.36 0.836s-0.518 0.359-0.834 0.359zM4.017 23.335h22.957c0.438 0 0.822-0.166 1.152-0.498s0.495-0.715 0.495-1.149v-8.487c0-0.434-0.131-0.782-0.393-1.045s-0.611-0.394-1.046-0.394c-0.436 0-0.784 0.131-1.046 0.394s-0.393 0.611-0.393 1.045v6.213h-20.496v-6.213c0-0.434-0.131-0.782-0.393-1.045s-0.611-0.394-1.046-0.394c-0.436 0-0.784 0.131-1.046 0.394s-0.393 0.611-0.393 1.045v8.487c0 0.434 0.166 0.818 0.498 1.149s0.715 0.498 1.15 0.498zM7.617 17.043h15.757v-3.843c0-0.74 0.169-1.365 0.507-1.875s0.712-0.917 1.123-1.221v-3.512c0-0.438-0.13-0.787-0.391-1.048s-0.607-0.391-1.039-0.391h-16.157c-0.428 0-0.774 0.13-1.036 0.391s-0.394 0.61-0.394 1.048v3.512c0.411 0.304 0.785 0.711 1.123 1.221s0.507 1.135 0.507 1.875v3.843z">
            </path>
        </symbol>
        <symbol id="icon-close" viewBox="0 0 32 32">
            <path stroke-linejoin="miter" stroke-linecap="butt" stroke-miterlimit="4" stroke-width="2.2857"
                d="M27.828 1.143c0.376 0 0.609 0.111 0.792 0.295s0.294 0.416 0.295 0.79c0 0.375-0.111 0.609-0.295 0.792l-12.009 12.009 12.009 12.007c0.184 0.184 0.295 0.417 0.295 0.792s-0.111 0.609-0.295 0.792-0.417 0.295-0.792 0.295c-0.375 0-0.609-0.111-0.792-0.295l-12.007-12.009-12.009 12.009c-0.184 0.184-0.417 0.295-0.792 0.295s-0.607-0.111-0.79-0.295c-0.184-0.184-0.295-0.417-0.295-0.792s0.111-0.609 0.295-0.792l12.007-12.007-12.007-12.009c-0.184-0.184-0.295-0.417-0.295-0.792s0.111-0.607 0.295-0.79 0.415-0.294 0.79-0.295c0.375 0 0.609 0.111 0.792 0.295l12.009 12.007 12.007-12.007c0.184-0.184 0.417-0.295 0.792-0.295z">
            </path>
        </symbol>
        <symbol id="icon-conversion-path" viewBox="0 0 32 32">
            <path
                d="M26.343 29.371c-1.108 0-2.065-0.329-2.87-0.988s-1.312-1.448-1.521-2.367h-7.914c-1.696 0-3.101-0.557-4.214-1.67s-1.669-2.52-1.669-4.217c0-1.691 0.556-3.094 1.669-4.208s2.517-1.67 4.214-1.67h2.933c1.021 0 1.858-0.326 2.51-0.979s0.978-1.49 0.978-2.511-0.326-1.858-0.978-2.509c-0.652-0.651-1.489-0.977-2.51-0.977h-8.019c-0.241 0.919-0.757 1.708-1.549 2.367s-1.743 0.988-2.851 0.988c-1.273 0-2.35-0.441-3.231-1.322s-1.321-1.958-1.321-3.231c0-1.273 0.44-2.35 1.321-3.231s1.958-1.321 3.231-1.321c1.108 0 2.058 0.329 2.851 0.988s1.309 1.448 1.549 2.367h8.019c1.694 0 3.099 0.557 4.213 1.67s1.671 2.518 1.671 4.213-0.557 3.099-1.671 4.213c-1.114 1.114-2.518 1.67-4.213 1.67h-2.933c-1.023 0-1.86 0.326-2.511 0.977s-0.977 1.487-0.977 2.507c0 1.026 0.326 1.865 0.977 2.516s1.488 0.977 2.511 0.977h7.914c0.235-0.919 0.748-1.708 1.54-2.367s1.743-0.988 2.851-0.988c1.273 0 2.35 0.441 3.231 1.322s1.321 1.958 1.321 3.231c0 1.273-0.44 2.35-1.321 3.231s-1.958 1.321-3.231 1.321zM4.552 8.133c0.584 0 1.073-0.197 1.467-0.59s0.59-0.883 0.59-1.467c0-0.584-0.197-1.073-0.59-1.467s-0.883-0.59-1.467-0.59c-0.584 0-1.073 0.197-1.467 0.59s-0.59 0.883-0.59 1.467c0 0.584 0.197 1.073 0.59 1.467s0.883 0.59 1.467 0.59z">
            </path>
        </symbol>
        <symbol id="icon-delete" viewBox="0 0 32 32">
            <path
                d="M6.461 31.011c-0.799 0-1.478-0.279-2.038-0.837s-0.84-1.236-0.84-2.031v-23.829h-0.463c-0.405 0-0.745-0.139-1.021-0.416s-0.413-0.619-0.413-1.026c0-0.407 0.138-0.747 0.413-1.019s0.616-0.408 1.021-0.408h6.914c0-0.412 0.138-0.755 0.414-1.031s0.616-0.413 1.021-0.413h8.579c0.405 0 0.745 0.14 1.021 0.419s0.413 0.621 0.413 1.025h6.924c0.405 0 0.745 0.139 1.021 0.416s0.413 0.619 0.413 1.026c0 0.407-0.138 0.747-0.413 1.019s-0.616 0.408-1.021 0.408h-0.463v23.829c0 0.796-0.28 1.473-0.84 2.031s-1.24 0.837-2.038 0.837h-18.603zM25.064 4.313h-18.603v23.829h18.603v-23.829zM15.762 18.258l3.962 3.994c0.294 0.301 0.651 0.456 1.071 0.467s0.78-0.138 1.081-0.446c0.294-0.317 0.441-0.676 0.441-1.077s-0.147-0.753-0.441-1.053l-3.962-4.036 3.962-4.046c0.294-0.294 0.441-0.644 0.441-1.050s-0.147-0.759-0.441-1.060c-0.301-0.294-0.661-0.441-1.081-0.441s-0.777 0.147-1.071 0.441l-3.962 4.004-3.92-4.004c-0.294-0.294-0.649-0.441-1.066-0.441s-0.775 0.147-1.076 0.441c-0.294 0.301-0.441 0.661-0.441 1.081s0.147 0.777 0.441 1.071l3.952 4.004-3.952 4.004c-0.301 0.294-0.449 0.649-0.446 1.066s0.152 0.775 0.446 1.076c0.303 0.294 0.662 0.441 1.077 0.441s0.774-0.147 1.075-0.441l3.909-3.994z">
            </path>
        </symbol>
        <symbol id="icon-edit" viewBox="0 0 32 32">
            <path
                d="M2.595 31.074c-0.701 0-1.309-0.257-1.823-0.772s-0.772-1.122-0.772-1.823v-22.693c0-0.704 0.257-1.313 0.772-1.83s1.122-0.775 1.823-0.775h12.294c0.436 0 0.762 0.135 0.98 0.405s0.326 0.566 0.326 0.89c0 0.324-0.11 0.623-0.329 0.898s-0.542 0.412-0.968 0.412h-12.303v22.693h22.693v-12.408c0-0.427 0.135-0.749 0.405-0.969s0.567-0.329 0.89-0.329 0.623 0.11 0.898 0.329c0.275 0.219 0.412 0.542 0.412 0.969v12.408c0 0.701-0.258 1.309-0.775 1.823s-1.126 0.772-1.83 0.772h-22.693zM9.261 20.515v-4.253c0-0.357 0.071-0.697 0.213-1.021s0.333-0.605 0.573-0.845l13.666-13.657c0.259-0.259 0.547-0.447 0.862-0.563s0.635-0.175 0.957-0.175c0.315 0 0.636 0.065 0.963 0.194s0.624 0.324 0.892 0.582l2.87 2.899c0.255 0.264 0.45 0.553 0.584 0.866s0.202 0.632 0.202 0.956c0 0.326-0.066 0.656-0.197 0.99s-0.328 0.631-0.589 0.892l-13.581 13.657c-0.24 0.24-0.521 0.429-0.845 0.568s-0.664 0.209-1.021 0.209h-4.253c-0.366 0-0.674-0.125-0.924-0.374s-0.374-0.557-0.374-0.924zM11.729 19.345h3.138l9.574-9.575-1.58-1.554-1.587-1.546-9.546 9.498v3.176z">
            </path>
        </symbol>
        <symbol id="icon-fitness" viewBox="0 0 32 32">
            <path
                d="M6.98 8.904l-4.764 4.763c-0.266 0.266-0.573 0.397-0.921 0.394s-0.656-0.138-0.922-0.403c-0.239-0.239-0.363-0.539-0.373-0.901s0.104-0.676 0.343-0.941l1.344-1.375-1.276-1.285c-0.272-0.272-0.408-0.592-0.408-0.96s0.136-0.688 0.408-0.96l2.455-2.455-0.716-0.706c-0.278-0.272-0.418-0.592-0.418-0.96s0.136-0.684 0.408-0.95c0.245-0.252 0.557-0.383 0.935-0.393s0.703 0.107 0.975 0.353l0.746 0.725 2.415-2.415c0.272-0.272 0.592-0.408 0.96-0.408s0.691 0.136 0.969 0.408l1.276 1.276 1.384-1.354c0.265-0.239 0.574-0.358 0.926-0.358s0.657 0.129 0.916 0.388c0.266 0.272 0.398 0.582 0.398 0.931s-0.133 0.656-0.398 0.921l-4.754 4.754 14.964 14.964 4.754-4.754c0.266-0.266 0.574-0.398 0.926-0.398s0.661 0.133 0.926 0.398c0.239 0.239 0.363 0.541 0.373 0.906s-0.104 0.677-0.343 0.936l-1.354 1.384 1.276 1.276c0.272 0.279 0.408 0.602 0.408 0.969s-0.136 0.688-0.408 0.96l-2.495 2.495 0.725 0.706c0.272 0.272 0.408 0.592 0.408 0.96s-0.136 0.684-0.408 0.95c-0.272 0.272-0.59 0.408-0.955 0.408s-0.683-0.139-0.955-0.418l-0.706-0.716-2.415 2.415c-0.272 0.272-0.592 0.408-0.96 0.408s-0.688-0.136-0.96-0.408l-1.285-1.276-1.384 1.354c-0.265 0.239-0.572 0.356-0.921 0.353s-0.653-0.134-0.912-0.393c-0.272-0.266-0.408-0.573-0.408-0.922s0.136-0.659 0.408-0.931l4.754-4.754-14.964-14.964z">
            </path>
        </symbol>
        <symbol id="icon-fork-spoon" viewBox="0 0 29 32">
            <path
                d="M6.186 30.941c-0.368 0-0.676-0.125-0.922-0.374s-0.369-0.557-0.369-0.924v-12.993c-1.521-0.381-2.717-1.102-3.588-2.163s-1.307-2.303-1.307-3.725v-9.491c0-0.356 0.123-0.657 0.368-0.902s0.545-0.368 0.901-0.368 0.655 0.123 0.898 0.368c0.243 0.245 0.365 0.546 0.365 0.902v8.194h2.4v-8.194c0-0.356 0.123-0.657 0.368-0.902s0.545-0.368 0.901-0.368 0.655 0.123 0.898 0.368c0.243 0.245 0.365 0.546 0.365 0.902v8.194h2.438v-8.194c0-0.356 0.123-0.657 0.368-0.902s0.546-0.368 0.901-0.368 0.655 0.123 0.898 0.368c0.243 0.245 0.365 0.546 0.365 0.902v9.474c0 1.428-0.439 2.667-1.317 3.719s-2.086 1.778-3.626 2.176v13.004c0 0.366-0.125 0.674-0.376 0.924s-0.56 0.374-0.928 0.374zM22.347 30.941c-0.368 0-0.675-0.125-0.921-0.374s-0.369-0.557-0.369-0.924v-13.651c-1.454-0.518-2.615-1.479-3.484-2.885s-1.304-3.070-1.304-4.992c0-2.256 0.594-4.173 1.783-5.75s2.623-2.365 4.303-2.365c1.68 0 3.114 0.791 4.303 2.373s1.783 3.496 1.783 5.742c0 1.918-0.435 3.583-1.304 4.994s-2.027 2.385-3.475 2.924v13.611c0 0.366-0.127 0.674-0.381 0.924s-0.566 0.374-0.933 0.374z">
            </path>
        </symbol>
        <symbol id="icon-google" viewBox="0 0 32 32">
            <path
                d="M32 15.627c0 7.378-3.929 16.373-15.769 16.373-8.898 0.059-16.163-7.102-16.231-16 0.068-8.898 7.333-16.059 16.231-16 3.681 0.014 7.251 1.266 10.133 3.556 0.199 0.163 0.322 0.401 0.338 0.658 0.001 0.26-0.101 0.509-0.284 0.693-1.157 1.058-2.261 2.174-3.307 3.342-0.304 0.335-0.814 0.381-1.173 0.107-1.642-1.216-3.647-1.842-5.689-1.778-5.253 0-9.511 4.258-9.511 9.511s4.258 9.511 9.511 9.511c5.333 0 7.591-2.276 8.764-6.311h-8.124c-0.491 0-0.889-0.398-0.889-0.889v-4.711c0-0.491 0.398-0.889 0.889-0.889h14.222c0.409-0.003 0.755 0.304 0.8 0.711 0.066 0.703 0.096 1.409 0.089 2.116z">
            </path>
        </symbol>
        <symbol id="icon-logout" viewBox="0 0 32 32">
            <path
                d="M3.711 30.829c-0.775 0-1.446-0.284-2.015-0.853s-0.853-1.241-0.853-2.015v-25.082c0-0.778 0.284-1.452 0.853-2.022s1.24-0.856 2.015-0.856h11.125c0.405 0 0.745 0.141 1.021 0.421s0.413 0.625 0.413 1.031c0 0.406-0.138 0.746-0.413 1.018s-0.616 0.408-1.021 0.408h-11.125v25.082h11.125c0.405 0 0.745 0.139 1.021 0.416s0.413 0.619 0.413 1.026c0 0.407-0.138 0.747-0.413 1.019s-0.616 0.408-1.021 0.408h-11.125zM26.175 16.854h-13.602c-0.405 0-0.745-0.139-1.021-0.416s-0.413-0.619-0.413-1.026c0-0.407 0.138-0.746 0.413-1.019s0.616-0.408 1.021-0.408h13.517l-3.239-3.239c-0.286-0.288-0.422-0.625-0.408-1.011s0.164-0.721 0.451-1.004c0.286-0.289 0.627-0.432 1.023-0.429s0.739 0.148 1.029 0.434l5.721 5.721c0.279 0.289 0.419 0.624 0.419 1.007s-0.14 0.717-0.419 1.003l-5.679 5.679c-0.281 0.286-0.614 0.424-1.001 0.413s-0.729-0.159-1.026-0.445c-0.275-0.286-0.415-0.628-0.419-1.025s0.141-0.74 0.435-1.027l3.197-3.207z">
            </path>
        </symbol>
        <symbol id="icon-menu" viewBox="0 0 32 32">
            <path d="M0 4h32v4h-32v-4zM0 14h32v4h-32v-4zM0 24h32v4h-32v-4z"></path>
        </symbol>
        <symbol id="icon-star" viewBox="0 0 32 32">
            <path
                d="M26.627 20.841c0.263-0.259 0.573-0.388 0.93-0.388s0.666 0.13 0.93 0.388l2.327 2.365c0.259 0.26 0.388 0.564 0.388 0.91s-0.13 0.651-0.389 0.913c-0.259 0.262-0.564 0.393-0.912 0.393s-0.654-0.132-0.915-0.397l-2.356-2.327c-0.265-0.261-0.397-0.571-0.397-0.93s0.131-0.668 0.395-0.927zM27.63 2.679c0.259 0.262 0.389 0.572 0.389 0.93s-0.13 0.665-0.389 0.922l-2.327 2.336c-0.265 0.259-0.575 0.388-0.932 0.388s-0.665-0.13-0.925-0.39c-0.265-0.263-0.397-0.573-0.397-0.931s0.132-0.666 0.397-0.923l2.356-2.336c0.262-0.259 0.567-0.388 0.916-0.388s0.653 0.131 0.912 0.393zM3.565 2.678c0.26-0.262 0.57-0.393 0.928-0.393s0.668 0.129 0.927 0.388l2.336 2.365c0.259 0.262 0.388 0.567 0.388 0.916s-0.128 0.653-0.385 0.912c-0.257 0.259-0.561 0.388-0.911 0.388s-0.654-0.129-0.911-0.388l-2.374-2.336c-0.259-0.259-0.389-0.567-0.389-0.924s0.13-0.666 0.39-0.928zM4.572 20.843c0.259 0.26 0.388 0.569 0.388 0.928s-0.129 0.667-0.388 0.926l-2.327 2.327c-0.261 0.265-0.571 0.397-0.93 0.397s-0.668-0.129-0.927-0.387c-0.259-0.258-0.388-0.562-0.388-0.911s0.129-0.655 0.388-0.919l2.365-2.365c0.26-0.259 0.563-0.388 0.91-0.388s0.65 0.13 0.909 0.391zM9.965 24.763l5.633-3.383 5.642 3.422-1.509-6.389 4.975-4.334-6.55-0.573-2.56-6.045-2.548 6.006-6.552 0.583 4.979 4.328-1.51 6.386zM15.597 24.415l-6.904 4.166c-0.233 0.151-0.481 0.215-0.743 0.191s-0.492-0.105-0.692-0.244c-0.199-0.139-0.349-0.324-0.45-0.556s-0.12-0.493-0.057-0.783l1.821-7.867-6.102-5.329c-0.227-0.196-0.365-0.418-0.412-0.666s-0.042-0.487 0.014-0.719c0.057-0.232 0.188-0.429 0.393-0.59s0.453-0.254 0.743-0.28l8.060-0.709 3.115-7.433c0.107-0.265 0.275-0.462 0.502-0.592s0.461-0.194 0.701-0.194 0.476 0.065 0.709 0.194c0.232 0.129 0.404 0.326 0.514 0.592l3.122 7.437 8.062 0.706c0.285 0.025 0.529 0.119 0.734 0.28s0.336 0.357 0.393 0.59c0.057 0.232 0.063 0.472 0.019 0.72s-0.18 0.469-0.408 0.665l-6.102 5.329 1.821 7.876c0.057 0.285 0.033 0.542-0.072 0.772s-0.252 0.422-0.44 0.575c-0.196 0.137-0.425 0.214-0.687 0.234s-0.509-0.043-0.742-0.189l-6.913-4.176z">
            </path>
        </symbol>
        <symbol id="icon-today" viewBox="0 0 29 32">
            <path
                d="M9.152 22.006c-1.037 0-1.911-0.358-2.622-1.074s-1.067-1.592-1.067-2.629c0-1.037 0.358-1.911 1.074-2.622s1.592-1.067 2.629-1.067c1.036 0 1.91 0.358 2.621 1.074s1.067 1.592 1.067 2.629c0 1.037-0.358 1.91-1.074 2.621s-1.592 1.067-2.629 1.067zM2.595 30.941c-0.701 0-1.309-0.257-1.823-0.772s-0.772-1.122-0.772-1.823v-23.455c0-0.704 0.257-1.313 0.772-1.83s1.122-0.775 1.823-0.775h2.394v-0.985c0-0.364 0.126-0.672 0.379-0.924s0.561-0.377 0.923-0.377c0.373 0 0.688 0.126 0.944 0.377s0.384 0.559 0.384 0.924v0.985h12.642v-0.985c0-0.364 0.127-0.672 0.38-0.924s0.561-0.377 0.923-0.377c0.373 0 0.688 0.126 0.944 0.377s0.384 0.559 0.384 0.924v0.985h2.394c0.704 0 1.314 0.258 1.83 0.775s0.775 1.126 0.775 1.83v23.455c0 0.701-0.258 1.309-0.775 1.823s-1.126 0.772-1.83 0.772h-22.693zM2.595 28.345h22.693v-16.299h-22.693v16.299zM2.595 9.761h22.693v-4.87h-22.693v4.87z">
            </path>
        </symbol>
        <symbol id="icon-logo" viewBox="0 0 32 32">
            <path fill="#33adc1" style="fill: var(--color1, #33adc1)"
                d="M31.596 15.798c0 8.725-7.073 15.798-15.798 15.798-0.328 0-0.652-0.010-0.975-0.030-1.352-0.082-2.658-0.335-3.897-0.736-0.471-0.152-0.933-0.327-1.384-0.521-5.614-2.423-9.543-8.008-9.543-14.511 0-8.725 7.073-15.798 15.798-15.798s15.798 7.073 15.798 15.798z">
            </path>
            <path fill="#eae0d3" style="fill: var(--color2, #eae0d3)"
                d="M14.824 31.567c-1.866-0.113-3.645-0.551-5.28-1.257 6.118-8.248-4.473-16.104-4.473-16.104l5.34-1.318c0-0 11.428 6.971 4.414 18.679z">
            </path>
            <path fill="#d6c8b0" style="fill: var(--color3, #d6c8b0)"
                d="M10.927 30.83c-0.471-0.152-0.933-0.327-1.384-0.521 6.118-8.248-4.473-16.104-4.473-16.104l1.543-0.381c0.374 0.28 0.898 0.644 1.432 1.144 2.786 2.602 6.827 8.139 2.881 15.862z">
            </path>
            <path fill="#eae0d3" style="fill: var(--color2, #eae0d3)"
                d="M14.222 8.792c0 3.411-2.765 6.176-6.176 6.176s-6.176-2.765-6.176-6.176c0-0.509 0.061-1.004 0.178-1.477s0.287-0.925 0.505-1.348l-2.552-2.552 4.182 0.559-2.145-2.66 4.905 1.401-0.535-2.714c0 0 4.267 2.36 6.294 4.734 0.154 0.176 0.297 0.361 0.43 0.554 0.688 0.996 1.091 2.203 1.091 3.505z">
            </path>
            <path fill="#2f373b" style="fill: var(--color4, #2f373b)"
                d="M11.365 7.532c0 0.835-0.677 1.513-1.512 1.513s-1.513-0.677-1.513-1.513c0-0.835 0.677-1.513 1.513-1.513s1.512 0.677 1.512 1.513z">
            </path>
            <path fill="#ff648d" style="fill: var(--color5, #ff648d)"
                d="M25.541 8.53c-0.621 0.324-1.276 0.251-1.801 0.077-0.614-0.203-1.052-0.542-1.052-0.542s-2.212-2.171-0.51-3.116c0.514-0.285 0.93-0.284 1.26-0.142h0.001c0.764 0.328 1.071 1.402 1.071 1.402s0.616-1.597 1.978-1.113c1.362 0.483 0.398 2.731-0.947 3.435z">
            </path>
            <path fill="#ea2f69" style="fill: var(--color6, #ea2f69)"
                d="M23.74 8.606c-0.614-0.203-1.052-0.542-1.052-0.542s-2.212-2.171-0.51-3.116c0.514-0.285 0.93-0.284 1.26-0.142-0.753-0.042-0.777 2.733 0.302 3.801z">
            </path>
            <path fill="#fff" style="fill: var(--color7, #fff)"
                d="M10.934 7.048c0 0.261-0.212 0.473-0.473 0.473s-0.473-0.212-0.473-0.473c0-0.261 0.212-0.472 0.473-0.472s0.473 0.212 0.473 0.472z">
            </path>
            <path fill="#ff648d" style="fill: var(--color5, #ff648d)"
                d="M23.243 9.261c0 2.304-6.271 9.3-2.175 12.199 1.024 0.725 2.154 0.961 3.274 0.908 1.119 0.053 2.25-0.183 3.274-0.908 4.096-2.899-2.175-9.895-2.175-12.199z">
            </path>
            <path fill="#ea2f69" style="fill: var(--color6, #ea2f69)"
                d="M24.173 22.373c-1.064 0.023-2.132-0.225-3.105-0.913-4.097-2.899 2.175-9.895 2.175-12.199h0.672c0 2.304-2.437 9.3-0.845 12.199 0.346 0.631 0.724 0.892 1.103 0.913z">
            </path>
            <path fill="#ea2f69" style="fill: var(--color6, #ea2f69)"
                d="M24.174 22.373c0.056-0 0.112-0.003 0.169-0.005-0.056 0.007-0.112 0.009-0.169 0.005z"></path>
            <path fill="#ea2f69" style="fill: var(--color6, #ea2f69)"
                d="M24.51 22.373c-0.056 0.004-0.112 0.002-0.168-0.005 0.056 0.002 0.112 0.005 0.168 0.005z"></path>
            <path fill="#ffd62c" style="fill: var(--color8, #ffd62c)"
                d="M28.464 8.855l-15.63 2.584c0 0-0.546-0.827-0.744-1.924-0.177-0.978-0.077-2.171 0.933-3.181l15.441 2.521z">
            </path>
            <path fill="#ffb92e" style="fill: var(--color9, #ffb92e)"
                d="M28.465 8.855l-15.63 2.584c0 0-0.546-0.827-0.744-1.924l16.374-0.66z"></path>
            <path fill="#d6c8b0" style="fill: var(--color3, #d6c8b0)"
                d="M8.045 14.968c-3.411 0-6.176-2.765-6.176-6.176 0-0.509 0.061-1.004 0.178-1.477s0.287-0.925 0.505-1.348l-2.552-2.552 4.182 0.559-2.145-2.66 5 2.815c0 0-3.088 1.135-3.088 4.727s4.097 6.113 4.097 6.113z">
            </path>
        </symbol>
        <symbol id="icon-leleka" viewBox="0 0 149 32">
            <path
                d="M136.304 31.433c-1.949 0-3.697-0.48-5.245-1.441-1.548-0.988-2.776-2.309-3.684-3.964-0.881-1.682-1.322-3.577-1.322-5.686s0.481-4.004 1.442-5.686c0.988-1.682 2.309-3.003 3.964-3.964 1.682-0.988 3.564-1.482 5.646-1.482s3.951 0.494 5.606 1.482c1.655 0.961 2.963 2.282 3.924 3.964 0.988 1.682 1.482 3.577 1.482 5.686h-1.562c0 2.109-0.454 4.004-1.362 5.686-0.881 1.655-2.096 2.976-3.644 3.964-1.548 0.961-3.297 1.441-5.245 1.441zM137.105 27.83c1.361 0 2.576-0.32 3.644-0.961 1.068-0.667 1.909-1.562 2.523-2.683 0.614-1.148 0.921-2.429 0.921-3.844 0-1.442-0.307-2.723-0.921-3.844-0.614-1.148-1.455-2.042-2.523-2.683-1.068-0.667-2.282-1.001-3.644-1.001-1.335 0-2.549 0.334-3.644 1.001-1.068 0.641-1.922 1.535-2.563 2.683-0.614 1.121-0.921 2.403-0.921 3.844 0 1.415 0.307 2.696 0.921 3.844 0.641 1.121 1.495 2.015 2.563 2.683 1.094 0.641 2.309 0.961 3.644 0.961zM146.075 31.313c-0.587 0-1.081-0.187-1.481-0.561-0.374-0.4-0.561-0.894-0.561-1.482v-6.126l0.761-4.245 3.323 1.442v8.929c0 0.587-0.2 1.081-0.601 1.482-0.374 0.374-0.854 0.561-1.442 0.561z">
            </path>
            <path
                d="M123.123 30.792c-0.347 0.32-0.841 0.48-1.482 0.48-0.614-0.027-1.095-0.213-1.442-0.56l-9.73-10.451 9.17-10.251c0.347-0.374 0.828-0.587 1.442-0.641 0.641-0.053 1.135 0.080 1.482 0.4 0.4 0.374 0.627 0.801 0.681 1.281 0.053 0.454-0.094 0.868-0.44 1.241l-7.248 7.768 7.688 8.249c0.347 0.347 0.521 0.761 0.521 1.241 0 0.454-0.214 0.868-0.641 1.241zM107.266 31.313c-0.587 0-1.054-0.187-1.402-0.56-0.347-0.4-0.52-0.894-0.52-1.482v-17.859c0-0.614 0.174-1.108 0.52-1.482s0.814-0.561 1.402-0.561c0.614 0 1.108 0.187 1.482 0.561 0.4 0.374 0.601 0.868 0.601 1.482v6.687h5.125v3.764h-5.125v7.408c0 0.587-0.2 1.081-0.601 1.482-0.374 0.374-0.868 0.56-1.482 0.56z">
            </path>
            <path
                d="M90.363 31.433c-2.216 0-4.191-0.467-5.926-1.401-1.709-0.961-3.057-2.269-4.044-3.924-0.961-1.682-1.442-3.604-1.442-5.766 0-2.189 0.454-4.111 1.361-5.766 0.934-1.682 2.216-2.99 3.844-3.924 1.629-0.961 3.497-1.442 5.606-1.442 2.082 0 3.871 0.467 5.366 1.402 1.495 0.908 2.63 2.176 3.404 3.804 0.801 1.602 1.201 3.457 1.201 5.566 0 0.507-0.174 0.934-0.521 1.281-0.347 0.32-0.787 0.48-1.321 0.48h-16.137v-3.203h16.017l-1.642 1.121c-0.027-1.335-0.294-2.523-0.801-3.564-0.507-1.068-1.228-1.909-2.162-2.523s-2.069-0.921-3.404-0.921c-1.522 0-2.829 0.334-3.924 1.001-1.068 0.667-1.882 1.588-2.442 2.763-0.561 1.148-0.841 2.456-0.841 3.924s0.334 2.776 1.001 3.924c0.667 1.148 1.588 2.056 2.763 2.723s2.523 1.001 4.044 1.001c0.828 0 1.669-0.147 2.523-0.44 0.881-0.32 1.588-0.681 2.122-1.081 0.4-0.294 0.827-0.44 1.281-0.44 0.48-0.027 0.894 0.107 1.241 0.4 0.454 0.4 0.694 0.841 0.721 1.321s-0.187 0.894-0.641 1.241c-0.908 0.721-2.042 1.308-3.404 1.762-1.335 0.454-2.616 0.681-3.844 0.681z">
            </path>
            <path
                d="M64.379 9.41c0.4 0 0.761 0.107 1.081 0.32s0.574 0.547 0.761 1.001l8.249 17.899c0.24 0.534 0.267 1.014 0.080 1.442-0.187 0.4-0.507 0.707-0.961 0.921-0.587 0.267-1.095 0.334-1.522 0.2s-0.788-0.467-1.081-1.001l-7.528-17.098h2.042l-7.768 17.098c-0.24 0.507-0.601 0.841-1.081 1.001-0.454 0.134-0.961 0.067-1.522-0.2-0.507-0.24-0.868-0.56-1.081-0.961-0.187-0.4-0.147-0.868 0.12-1.402l8.289-17.899c0.4-0.881 1.041-1.321 1.922-1.321z">
            </path>
            <path
                d="M41.193 31.433c-2.216 0-4.191-0.467-5.926-1.401-1.708-0.961-3.056-2.269-4.044-3.924-0.961-1.682-1.442-3.604-1.442-5.766 0-2.189 0.454-4.111 1.361-5.766 0.934-1.682 2.216-2.99 3.844-3.924 1.628-0.961 3.497-1.442 5.606-1.442 2.082 0 3.871 0.467 5.366 1.402 1.495 0.908 2.63 2.176 3.404 3.804 0.801 1.602 1.201 3.457 1.201 5.566 0 0.507-0.174 0.934-0.521 1.281-0.347 0.32-0.787 0.48-1.321 0.48h-16.137v-3.203h16.017l-1.642 1.121c-0.027-1.335-0.294-2.523-0.801-3.564-0.507-1.068-1.228-1.909-2.162-2.523s-2.069-0.921-3.404-0.921c-1.522 0-2.83 0.334-3.924 1.001-1.068 0.667-1.882 1.588-2.443 2.763-0.561 1.148-0.841 2.456-0.841 3.924s0.334 2.776 1.001 3.924c0.667 1.148 1.588 2.056 2.763 2.723s2.523 1.001 4.044 1.001c0.828 0 1.668-0.147 2.523-0.44 0.881-0.32 1.588-0.681 2.122-1.081 0.4-0.294 0.827-0.44 1.281-0.44 0.48-0.027 0.894 0.107 1.241 0.4 0.454 0.4 0.694 0.841 0.721 1.321s-0.187 0.894-0.641 1.241c-0.908 0.721-2.042 1.308-3.404 1.762-1.335 0.454-2.616 0.681-3.844 0.681z">
            </path>
            <path
                d="M2.056 31.273c-0.747 0-1.321-0.32-1.722-0.961s-0.44-1.321-0.12-2.042l11.252-26.868c0.4-0.934 1.054-1.401 1.962-1.401 0.961 0 1.615 0.467 1.962 1.401l11.292 26.949c0.294 0.747 0.254 1.428-0.12 2.042-0.347 0.587-0.908 0.881-1.682 0.881-0.4 0-0.787-0.107-1.161-0.32-0.347-0.24-0.601-0.561-0.761-0.961l-10.011-24.666h1.281l-10.251 24.666c-0.187 0.427-0.467 0.748-0.841 0.961-0.347 0.213-0.707 0.32-1.081 0.32z">
            </path>
        </symbol>
    </defs>
</svg>
